<svg width="18" height="16" viewBox="0 0 18 16" fill="none" xmlns="http://www.w3.org/2000/svg">
  <path fill="orange" d="M9 5.5A3.5 3.5 0 1 1 5.5 9 3.5 3.5 0 0 1 9 5.5Zm0-5a.75.75 0 0 1 .75.75V2a.75.75 0 0 1-1.5 0V1.25A.75.75 0 0 1 9 .5Zm0 13a.75.75 0 0 1 .75.75V15a.75.75 0 0 1-1.5 0v-.75A.75.75 0 0 1 9 13.5Zm8.5-4.5a.75.75 0 0 1-.75.75H15a.75.75 0 0 1 0-1.5h1.75a.75.75 0 0 1 .75.75ZM2.25 9.75A.75.75 0 0 1 1.5 9a.75.75 0 0 1 .75-.75H4a.75.75 0 0 1 0 1.5H2.25ZM13.53 3.03a.75.75 0 0 1 1.06 1.06l-1.24 1.24a.75.75 0 0 1-1.06-1.06l1.24-1.24Zm-9.06 9.06a.75.75 0 0 1 1.06 1.06L4.29 14.39a.75.75 0 1 1-1.06-1.06l1.24-1.24ZM13.53 12.97l-1.24-1.24a.75.75 0 1 1 1.06-1.06l1.24 1.24a.75.75 0 1 1-1.06 1.06ZM5.47 3.03 4.23 4.27a.75.75 0 1 1-1.06-1.06L4.41 1.97a.75.75 0 1 1 1.06 1.06Z"/>
</svg>
