<svg width="18" height="16" viewBox="0 0 18 16" fill="none" xmlns="http://www.w3.org/2000/svg">
<path d="M5.72754 15C5.00892 15 4.30638 14.916 3.61993 14.7479C2.94421 14.5798 2.33285 14.312 1.78583 13.9443C1.23882 13.5872 0.80443 13.125 0.482658 12.5578C0.160886 11.9905 0 11.3078 0 10.5095C0 9.64811 0.176974 8.86029 0.530923 8.14601C0.884873 7.42122 1.38362 6.78046 2.02716 6.22374C2.67071 5.66702 3.43223 5.20483 4.31174 4.83718C4.92356 4.5773 5.57337 4.36951 6.26118 4.21381C6.80374 4.09099 7.32847 4.44371 7.46606 4.98272C7.62191 5.59326 7.22441 6.20227 6.61367 6.35732C6.13296 6.47936 5.69279 6.61865 5.29315 6.77521C4.6067 7.04832 4.03824 7.3687 3.58776 7.73634C3.13728 8.10399 2.79942 8.4979 2.57418 8.91807C2.35966 9.34874 2.2524 9.80042 2.2524 10.2731C2.2524 10.6513 2.32212 10.9821 2.46156 11.2658C2.61172 11.5494 2.81014 11.7857 3.05683 11.9748C3.30353 12.1744 3.57703 12.3319 3.87735 12.4475C4.17767 12.5735 4.48872 12.6628 4.81049 12.7153C5.13226 12.7679 5.43794 12.7941 5.72754 12.7941C6.46761 12.7941 7.15406 12.7258 7.78688 12.5893C8.43042 12.4527 9.8738 11.7911 10.3565 11.5915L11 13.6241C10.7426 13.7501 9.49763 14.375 9.0257 14.5116C8.5645 14.6481 8.0443 14.7637 7.46511 14.8582C6.89664 14.9527 6.31745 15 5.72754 15ZM2.52591 6.27101C2.15051 6.12395 1.80192 5.91386 1.48015 5.64076C1.1691 5.36765 0.91705 5.03151 0.723987 4.63235C0.541649 4.22269 0.450481 3.75525 0.450481 3.23004C0.450481 2.56828 0.627455 1.9958 0.981404 1.51261C1.33535 1.02941 1.80729 0.656513 2.3972 0.393907C2.98712 0.131302 3.63066 0 4.32783 0C4.67106 0 4.98746 0.0210084 5.27706 0.0630253C5.80339 0.136663 6.12658 0.651923 6.03807 1.17596L5.95732 1.65404C5.89382 2.03 5.52628 2.27211 5.14835 2.22164C4.91238 2.19013 4.70323 2.17437 4.5209 2.17437C4.14549 2.17437 3.81836 2.22689 3.53949 2.33193C3.27135 2.43698 3.0622 2.58929 2.91204 2.78887C2.7726 2.97794 2.70288 3.20378 2.70288 3.46639C2.70288 3.67647 2.76724 3.87605 2.89595 4.06513C3.03538 4.2542 3.21236 4.42227 3.42687 4.56933C3.64139 4.70588 3.87735 4.82143 4.13477 4.91597C4.39219 5 4.64424 5.04727 4.89093 5.05777L2.52591 6.27101Z" fill="#16afb7 "/>
<path d="M9.5625 16C9.25184 16 9 15.7482 9 15.4375V4C9 3.44772 9.44772 3 10 3H16.8264C17.4315 3 17.9221 3.49057 17.9221 4.09571C17.9221 4.70086 17.4315 5.19143 16.8264 5.19143H11.4935V13.8086H16.9043C17.5094 13.8086 18 14.2991 18 14.9043C18 15.5094 17.5094 16 16.9043 16H9.5625ZM10.1688 10.4286V8.27429H15.8514C16.4463 8.27429 16.9286 8.75654 16.9286 9.35143C16.9286 9.94632 16.4463 10.4286 15.8514 10.4286H10.1688Z" fill="#133d3f"/>
</svg>
